<svg width="384" height="384" viewBox="0 0 384 384" fill="none" xmlns="http://www.w3.org/2000/svg">
<circle cx="192" cy="192" r="192" fill="#6C2BD7"/>
<path d="M109.5 259L153.5 125H170.5L214.5 259H196.5L186.5 228H137.5L127.5 259H109.5ZM143.5 212H180.5L162 157.5L143.5 212ZM246.5 259V125H264.5V259H246.5ZM264.5 154.5V137.5H282.5V154.5H264.5ZM282.5 259V154.5H264.5V259H282.5Z" fill="white"/>
<path d="M264.5 125H282.5V137.5H264.5V125ZM282.5 137.5V154.5H264.5V137.5H282.5Z" fill="white"/>
<path d="M282.5 137.5V154.5H264.5V137.5H282.5Z" fill="white"/>
<path d="M282.5 137.5V154.5H264.5V137.5H282.5Z" fill="white"/>
<circle cx="264.5" cy="109.5" r="8.5" fill="white"/>
</svg>